# xmcd
#
# Track frame offsets:
#	150
#	18769
#	36501
#	61658
#	84983
#	101146
#	120934
#	139102
#	156889
#	176661
#	208207
#
# Disc length: 3421 seconds
#
# Revision: 1
# Processed by: cddbd v1.5.2PL0 Copyright (c) Steve Scherf et al.
# Submitted via: audiograbber 1.83.01
#
DISCID=8c0d5b0b
DTITLE=Stam1na - Raja
DYEAR=2008
DGENRE=Thrash Metal
TTITLE0=Hammasratas
TTITLE1=Susi-Ihminen
TTITLE2=Muistipalapelit
TTITLE3=Vartijaton
TTITLE4=Voima vastaan viha
TTITLE5=L‰‰ke
TTITLE6=K‰det vasten lasia
TTITLE7=Luova hulluus
TTITLE8=Muuri
TTITLE9=Murtumispiste
TTITLE10=Daten-CD
EXTD=
EXTT0=
EXTT1=
EXTT2=
EXTT3=
EXTT4=
EXTT5=
EXTT6=
EXTT7=
EXTT8=
EXTT9=
EXTT10=
PLAYORDER=
